<svg width="245" height="56" viewBox="0 0 245 56" fill="none" xmlns="http://www.w3.org/2000/svg">
<g clip-path="url(#clip0_501_9)">
<rect x="83" width="56" height="56" rx="15" fill="#12193E"/>
<path d="M97 42L111 13V27.2769M111 42V27.2769M111 27.2769L125 13M111 27.2769L125 42" stroke="white" stroke-width="4" stroke-linecap="round" stroke-linejoin="round"/>
<g filter="url(#filter0_f_501_9)">
<path d="M84.75 22.9688C95.0795 22.9688 103.453 14.5951 103.453 4.26563C103.453 -6.06382 95.0795 -14.4375 84.75 -14.4375C74.4206 -14.4375 66.0469 -6.06382 66.0469 4.26563C66.0469 14.5951 74.4206 22.9688 84.75 22.9688Z" fill="#EC2F4B"/>
</g>
<g filter="url(#filter1_f_501_9)">
<path d="M133.313 70.2188C143.642 70.2188 152.016 61.8451 152.016 51.5156C152.016 41.1862 143.642 32.8125 133.313 32.8125C122.983 32.8125 114.609 41.1862 114.609 51.5156C114.609 61.8451 122.983 70.2188 133.313 70.2188Z" fill="#0484D9"/>
</g>
</g>
<path d="M1.77744 34.176C1.58544 34.176 1.38277 34.16 1.16944 34.128C0.966771 34.096 0.742771 34.0533 0.497438 34L0.657438 31.808C0.806771 31.8507 0.961438 31.872 1.12144 31.872C1.55877 31.872 1.9001 31.696 2.14544 31.344C2.39077 30.9813 2.56677 30.464 2.67344 29.792C2.7801 29.12 2.84944 28.304 2.88144 27.344L3.04144 22.8H11.6494V34H9.08944V24.32L9.68144 24.912H4.73744L5.26544 24.288L5.16944 27.248C5.13744 28.3467 5.06277 29.3227 4.94544 30.176C4.8281 31.0293 4.64677 31.7547 4.40144 32.352C4.1561 32.9493 3.8201 33.4027 3.39344 33.712C2.96677 34.0213 2.4281 34.176 1.77744 34.176ZM16.8307 27.312H22.2227V29.328H16.8307V27.312ZM17.0227 31.92H23.1187V34H14.4467V22.8H22.9107V24.88H17.0227V31.92ZM30.5723 34.192C29.687 34.192 28.8656 34.048 28.1083 33.76C27.3616 33.472 26.711 33.0667 26.1563 32.544C25.6123 32.0213 25.1856 31.408 24.8763 30.704C24.5776 30 24.4283 29.232 24.4283 28.4C24.4283 27.568 24.5776 26.8 24.8763 26.096C25.1856 25.392 25.6176 24.7787 26.1723 24.256C26.727 23.7333 27.3776 23.328 28.1243 23.04C28.871 22.752 29.6816 22.608 30.5563 22.608C31.4416 22.608 32.2523 22.752 32.9883 23.04C33.735 23.328 34.3803 23.7333 34.9243 24.256C35.479 24.7787 35.911 25.392 36.2203 26.096C36.5296 26.7893 36.6843 27.5573 36.6843 28.4C36.6843 29.232 36.5296 30.0053 36.2203 30.72C35.911 31.424 35.479 32.0373 34.9243 32.56C34.3803 33.072 33.735 33.472 32.9883 33.76C32.2523 34.048 31.447 34.192 30.5723 34.192ZM30.5563 31.984C31.0576 31.984 31.5163 31.8987 31.9323 31.728C32.359 31.5573 32.7323 31.312 33.0523 30.992C33.3723 30.672 33.6176 30.2933 33.7883 29.856C33.9696 29.4187 34.0603 28.9333 34.0603 28.4C34.0603 27.8667 33.9696 27.3813 33.7883 26.944C33.6176 26.5067 33.3723 26.128 33.0523 25.808C32.743 25.488 32.375 25.2427 31.9483 25.072C31.5216 24.9013 31.0576 24.816 30.5563 24.816C30.055 24.816 29.591 24.9013 29.1643 25.072C28.7483 25.2427 28.3803 25.488 28.0603 25.808C27.7403 26.128 27.4896 26.5067 27.3083 26.944C27.1376 27.3813 27.0523 27.8667 27.0523 28.4C27.0523 28.9227 27.1376 29.408 27.3083 29.856C27.4896 30.2933 27.735 30.672 28.0443 30.992C28.3643 31.312 28.7376 31.5573 29.1643 31.728C29.591 31.8987 30.055 31.984 30.5563 31.984ZM46.3611 22.8H48.9531V34H46.3611V22.8ZM41.2731 34H38.6811V22.8H41.2731V34ZM46.5531 29.408H41.0811V27.216H46.5531V29.408ZM51.7592 34V22.8H54.3352V30.096L59.6792 22.8H62.1112V34H59.5512V26.72L54.2072 34H51.7592ZM72.2457 32.848V24.912H68.4057L68.3577 26.544C68.3257 27.2373 68.2777 27.8933 68.2137 28.512C68.1604 29.1307 68.075 29.696 67.9577 30.208C67.8404 30.7093 67.6857 31.136 67.4937 31.488C67.3124 31.84 67.083 32.0907 66.8057 32.24L64.0377 31.888C64.4217 31.8987 64.7364 31.7653 64.9817 31.488C65.2377 31.2107 65.4404 30.8213 65.5897 30.32C65.739 29.808 65.8457 29.2107 65.9097 28.528C65.9844 27.8453 66.0377 27.104 66.0697 26.304L66.1977 22.8H74.8057V32.848H72.2457ZM63.6697 36.32L63.6857 31.888H76.3737V36.32H73.9737V34H66.0697V36.32H63.6697Z" fill="white"/>
<path d="M154.921 34L151.433 28.608L153.529 27.344L157.865 34H154.921ZM147.641 34V22.8H150.217V34H147.641ZM149.465 29.488V27.328H153.369V29.488H149.465ZM153.769 28.688L151.385 28.4L155.017 22.8H157.753L153.769 28.688ZM164.393 34.192C163.507 34.192 162.686 34.048 161.929 33.76C161.182 33.472 160.531 33.0667 159.977 32.544C159.433 32.0213 159.006 31.408 158.697 30.704C158.398 30 158.249 29.232 158.249 28.4C158.249 27.568 158.398 26.8 158.697 26.096C159.006 25.392 159.438 24.7787 159.993 24.256C160.547 23.7333 161.198 23.328 161.945 23.04C162.691 22.752 163.502 22.608 164.377 22.608C165.262 22.608 166.073 22.752 166.809 23.04C167.555 23.328 168.201 23.7333 168.745 24.256C169.299 24.7787 169.731 25.392 170.041 26.096C170.35 26.7893 170.505 27.5573 170.505 28.4C170.505 29.232 170.35 30.0053 170.041 30.72C169.731 31.424 169.299 32.0373 168.745 32.56C168.201 33.072 167.555 33.472 166.809 33.76C166.073 34.048 165.267 34.192 164.393 34.192ZM164.377 31.984C164.878 31.984 165.337 31.8987 165.753 31.728C166.179 31.5573 166.553 31.312 166.873 30.992C167.193 30.672 167.438 30.2933 167.609 29.856C167.79 29.4187 167.881 28.9333 167.881 28.4C167.881 27.8667 167.79 27.3813 167.609 26.944C167.438 26.5067 167.193 26.128 166.873 25.808C166.563 25.488 166.195 25.2427 165.769 25.072C165.342 24.9013 164.878 24.816 164.377 24.816C163.875 24.816 163.411 24.9013 162.985 25.072C162.569 25.2427 162.201 25.488 161.881 25.808C161.561 26.128 161.31 26.5067 161.129 26.944C160.958 27.3813 160.873 27.8667 160.873 28.4C160.873 28.9227 160.958 29.408 161.129 29.856C161.31 30.2933 161.555 30.672 161.865 30.992C162.185 31.312 162.558 31.5573 162.985 31.728C163.411 31.8987 163.875 31.984 164.377 31.984ZM172.501 34V22.8H177.349C178.352 22.8 179.216 22.9653 179.941 23.296C180.667 23.616 181.227 24.08 181.621 24.688C182.016 25.296 182.213 26.0213 182.213 26.864C182.213 27.696 182.016 28.416 181.621 29.024C181.227 29.632 180.667 30.1013 179.941 30.432C179.216 30.752 178.352 30.912 177.349 30.912H173.941L175.093 29.744V34H172.501ZM175.093 30.032L173.941 28.8H177.205C178.005 28.8 178.603 28.6293 178.997 28.288C179.392 27.9467 179.589 27.472 179.589 26.864C179.589 26.2453 179.392 25.7653 178.997 25.424C178.603 25.0827 178.005 24.912 177.205 24.912H173.941L175.093 23.68V30.032ZM189.44 34.192C188.554 34.192 187.733 34.048 186.976 33.76C186.229 33.472 185.578 33.0667 185.024 32.544C184.48 32.0213 184.053 31.408 183.743 30.704C183.445 30 183.296 29.232 183.296 28.4C183.296 27.568 183.445 26.8 183.743 26.096C184.053 25.392 184.485 24.7787 185.039 24.256C185.594 23.7333 186.245 23.328 186.992 23.04C187.738 22.752 188.549 22.608 189.424 22.608C190.309 22.608 191.12 22.752 191.856 23.04C192.602 23.328 193.248 23.7333 193.792 24.256C194.346 24.7787 194.778 25.392 195.088 26.096C195.397 26.7893 195.552 27.5573 195.552 28.4C195.552 29.232 195.397 30.0053 195.088 30.72C194.778 31.424 194.346 32.0373 193.792 32.56C193.248 33.072 192.602 33.472 191.856 33.76C191.12 34.048 190.314 34.192 189.44 34.192ZM189.424 31.984C189.925 31.984 190.384 31.8987 190.8 31.728C191.226 31.5573 191.6 31.312 191.92 30.992C192.24 30.672 192.485 30.2933 192.656 29.856C192.837 29.4187 192.928 28.9333 192.928 28.4C192.928 27.8667 192.837 27.3813 192.656 26.944C192.485 26.5067 192.24 26.128 191.92 25.808C191.61 25.488 191.242 25.2427 190.816 25.072C190.389 24.9013 189.925 24.816 189.424 24.816C188.922 24.816 188.458 24.9013 188.032 25.072C187.616 25.2427 187.248 25.488 186.928 25.808C186.608 26.128 186.357 26.5067 186.176 26.944C186.005 27.3813 185.92 27.8667 185.92 28.4C185.92 28.9227 186.005 29.408 186.176 29.856C186.357 30.2933 186.602 30.672 186.911 30.992C187.231 31.312 187.605 31.5573 188.032 31.728C188.458 31.8987 188.922 31.984 189.424 31.984ZM197.548 34V22.8H206.588V24.864H200.124V27.168H203.228C204.583 27.168 205.612 27.4507 206.316 28.016C207.031 28.5813 207.388 29.4027 207.388 30.48C207.388 31.5893 206.994 32.4533 206.204 33.072C205.415 33.6907 204.3 34 202.86 34H197.548ZM200.124 32.08H202.716C203.378 32.08 203.884 31.952 204.236 31.696C204.588 31.4293 204.764 31.0453 204.764 30.544C204.764 29.5627 204.082 29.072 202.716 29.072H200.124V32.08ZM216.609 34L213.121 28.608L215.217 27.344L219.553 34H216.609ZM209.329 34V22.8H211.905V34H209.329ZM211.153 29.488V27.328H215.057V29.488H211.153ZM215.457 28.688L213.073 28.4L216.705 22.8H219.441L215.457 28.688ZM226.08 34.192C225.195 34.192 224.373 34.048 223.616 33.76C222.869 33.472 222.219 33.0667 221.664 32.544C221.12 32.0213 220.693 31.408 220.384 30.704C220.085 30 219.936 29.232 219.936 28.4C219.936 27.568 220.085 26.8 220.384 26.096C220.693 25.392 221.125 24.7787 221.68 24.256C222.235 23.7333 222.885 23.328 223.632 23.04C224.379 22.752 225.189 22.608 226.064 22.608C226.949 22.608 227.76 22.752 228.496 23.04C229.243 23.328 229.888 23.7333 230.432 24.256C230.987 24.7787 231.419 25.392 231.728 26.096C232.037 26.7893 232.192 27.5573 232.192 28.4C232.192 29.232 232.037 30.0053 231.728 30.72C231.419 31.424 230.987 32.0373 230.432 32.56C229.888 33.072 229.243 33.472 228.496 33.76C227.76 34.048 226.955 34.192 226.08 34.192ZM226.064 31.984C226.565 31.984 227.024 31.8987 227.44 31.728C227.867 31.5573 228.24 31.312 228.56 30.992C228.88 30.672 229.125 30.2933 229.296 29.856C229.477 29.4187 229.568 28.9333 229.568 28.4C229.568 27.8667 229.477 27.3813 229.296 26.944C229.125 26.5067 228.88 26.128 228.56 25.808C228.251 25.488 227.883 25.2427 227.456 25.072C227.029 24.9013 226.565 24.816 226.064 24.816C225.563 24.816 225.099 24.9013 224.672 25.072C224.256 25.2427 223.888 25.488 223.568 25.808C223.248 26.128 222.997 26.5067 222.816 26.944C222.645 27.3813 222.56 27.8667 222.56 28.4C222.56 28.9227 222.645 29.408 222.816 29.856C222.997 30.2933 223.243 30.672 223.552 30.992C223.872 31.312 224.245 31.5573 224.672 31.728C225.099 31.8987 225.563 31.984 226.064 31.984ZM234.189 34V22.8H239.405C240.706 22.8 241.72 23.0507 242.445 23.552C243.17 24.0533 243.533 24.768 243.533 25.696C243.533 26.6133 243.192 27.328 242.509 27.84C241.826 28.3413 240.92 28.592 239.789 28.592L240.093 27.92C241.352 27.92 242.328 28.1707 243.021 28.672C243.714 29.1733 244.061 29.8987 244.061 30.848C244.061 31.8293 243.688 32.6027 242.941 33.168C242.205 33.7227 241.128 34 239.709 34H234.189ZM236.765 32.08H239.613C240.21 32.08 240.664 31.9627 240.973 31.728C241.282 31.4933 241.437 31.1307 241.437 30.64C241.437 30.1707 241.282 29.824 240.973 29.6C240.664 29.3653 240.21 29.248 239.613 29.248H236.765V32.08ZM236.765 27.44H239.181C239.746 27.44 240.173 27.328 240.461 27.104C240.749 26.8693 240.893 26.528 240.893 26.08C240.893 25.632 240.749 25.296 240.461 25.072C240.173 24.8373 239.746 24.72 239.181 24.72H236.765V27.44Z" fill="white"/>
<defs>
<filter id="filter0_f_501_9" x="46.0469" y="-34.4375" width="77.4062" height="77.4062" filterUnits="userSpaceOnUse" color-interpolation-filters="sRGB">
<feFlood flood-opacity="0" result="BackgroundImageFix"/>
<feBlend mode="normal" in="SourceGraphic" in2="BackgroundImageFix" result="shape"/>
<feGaussianBlur stdDeviation="10" result="effect1_foregroundBlur_501_9"/>
</filter>
<filter id="filter1_f_501_9" x="94.6094" y="12.8125" width="77.4062" height="77.4062" filterUnits="userSpaceOnUse" color-interpolation-filters="sRGB">
<feFlood flood-opacity="0" result="BackgroundImageFix"/>
<feBlend mode="normal" in="SourceGraphic" in2="BackgroundImageFix" result="shape"/>
<feGaussianBlur stdDeviation="10" result="effect1_foregroundBlur_501_9"/>
</filter>
<clipPath id="clip0_501_9">
<rect x="83" width="56" height="56" rx="15" fill="white"/>
</clipPath>
</defs>
</svg>
